<svg xmlns="http://www.w3.org/2000/svg" viewBox="0 0 960 720" role="img" aria-labelledby="title desc">
  <title id="title">Check My Paper logo</title>
  <desc id="desc">Document icon with a green check and the text Check My Paper, Plagiarism and AI Detection. Humanized.</desc>
  <defs>
    <linearGradient id="bg" x1="120" y1="60" x2="840" y2="660" gradientUnits="userSpaceOnUse">
      <stop stop-color="#0b1224"/>
      <stop offset="1" stop-color="#111827"/>
    </linearGradient>
    <radialGradient id="glow" cx="0" cy="0" r="1" gradientUnits="userSpaceOnUse" gradientTransform="translate(180 160) rotate(45) scale(320 280)">
      <stop stop-color="#22d3ee" stop-opacity="0.4"/>
      <stop offset="1" stop-color="#22d3ee" stop-opacity="0"/>
    </radialGradient>
    <radialGradient id="glow2" cx="0" cy="0" r="1" gradientUnits="userSpaceOnUse" gradientTransform="translate(760 520) rotate(-30) scale(360 260)">
      <stop stop-color="#7c3aed" stop-opacity="0.35"/>
      <stop offset="1" stop-color="#7c3aed" stop-opacity="0"/>
    </radialGradient>
  </defs>
  <rect width="960" height="720" fill="url(#bg)"/>
  <rect width="960" height="720" fill="url(#glow)"/>
  <rect width="960" height="720" fill="url(#glow2)"/>
  <g filter="url(#shadow)" opacity="0.9">
    <rect x="140" y="120" width="320" height="460" rx="32" fill="rgba(255,255,255,0.02)" stroke="#e5e7eb" stroke-width="14"/>
    <path d="M430 120h-90c-18 0-32 14-32 32v52c0 6 5 12 12 12h144c6 0 12-6 12-12v-34c0-7-3-13-8-18l-38-38c-5-5-11-8-18-8Z" fill="#101726" stroke="#e5e7eb" stroke-width="14"/>
    <path d="M388 232h-96" stroke="#e5e7eb" stroke-width="14" stroke-linecap="round"/>
    <path d="M348 272h-56" stroke="#e5e7eb" stroke-width="14" stroke-linecap="round"/>
    <circle cx="202" cy="258" r="8" fill="#e5e7eb"/>
    <circle cx="230" cy="288" r="8" fill="#e5e7eb"/>
    <circle cx="260" cy="318" r="8" fill="#e5e7eb"/>
    <circle cx="230" cy="348" r="8" fill="#e5e7eb"/>
    <circle cx="202" cy="378" r="8" fill="#e5e7eb"/>
    <path d="m230 408 54 54 118-118" fill="none" stroke="#2ecc71" stroke-width="22" stroke-linecap="round" stroke-linejoin="round"/>
  </g>
  <text x="500" y="320" fill="#f8fafc" font-family="'Segoe UI', 'Inter', system-ui, -apple-system, sans-serif" font-size="88" font-weight="800" letter-spacing="2">CHECK</text>
  <text x="500" y="410" fill="#f8fafc" font-family="'Segoe UI', 'Inter', system-ui, -apple-system, sans-serif" font-size="88" font-weight="800" letter-spacing="2">MY PAPER</text>
  <text x="500" y="470" fill="#cbd5e1" font-family="'Segoe UI', 'Inter', system-ui, -apple-system, sans-serif" font-size="30" font-weight="600">Plagiarism &amp; AI Detection. Humanized.</text>
  <filter id="shadow" x="90" y="80" width="760" height="560" color-interpolation-filters="sRGB">
    <feDropShadow dx="0" dy="14" stdDeviation="24" flood-color="#000" flood-opacity="0.45"/>
  </filter>
</svg>
